<svg version="1.1" viewBox="20 20 30 30" 
preserveAspectRatio="xMinYMin meet" class="svg-content" >

<g transform="translate(0.25,25.000000) scale(0.0015,-0.0015)"
fill="#000000" stroke="none">
<path d="M1849 9058 c-1 -2856 -1 -5224 0 -5263 3 -99 17 -175 53 -288 144
-458 584 -851 1363 -1219 477 -225 1031 -427 2015 -732 1226 -379 1720 -556
2112 -752 l106 -53 144 69 c355 170 871 360 1563 575 1259 391 1657 525 2130
717 1185 482 1767 1010 1813 1643 4 55 6 2439 4 5298 l-2 5197 -5650 0 -5650
0 -1 -5192z m5333 4736 c345 -67 699 -151 993 -235 179 -52 508 -159 518 -169
4 -4 -7 -13 -25 -20 -18 -8 -93 -42 -166 -76 l-132 -63 21 -53 c43 -104 129
-360 168 -495 110 -382 180 -764 223 -1228 26 -281 14 -1213 -18 -1427 l-6
-38 503 0 502 0 66 36 c890 491 1341 1031 1341 1606 0 172 -57 400 -146 582
-48 97 -145 266 -154 266 -3 0 -18 -25 -33 -55 -102 -209 -262 -274 -497 -201
-263 81 -612 371 -690 573 -33 85 -32 173 3 245 108 220 455 309 927 238 98
-15 297 -12 387 5 145 28 302 91 433 176 33 21 66 39 72 39 7 0 9 -38 6 -122
-6 -141 -27 -219 -83 -312 -19 -32 -35 -62 -35 -66 0 -4 51 -46 113 -93 442
-336 670 -669 716 -1042 14 -115 16 -8315 2 -8315 -5 0 -20 13 -33 29 -13 16
-104 118 -203 227 l-180 198 -5 2979 -5 2978 -160 -104 -160 -104 -3 -2687
c-1 -1477 -4 -2686 -6 -2686 -6 0 -120 120 -274 291 l-142 157 0 2346 c0 1617
-3 2346 -10 2346 -6 0 -30 -10 -53 -22 -23 -12 -91 -42 -152 -68 l-110 -47 -5
-2096 -5 -2096 -202 222 -202 222 0 1798 c-1 1484 -3 1797 -14 1797 -8 0 -49
-11 -93 -24 -43 -12 -112 -31 -151 -41 l-73 -17 0 -1569 c0 -863 -3 -1569 -7
-1568 -12 1 -396 426 -405 446 -4 10 -7 598 -7 1307 0 709 -3 1291 -5 1293 -3
3 -73 -4 -156 -16 -83 -12 -155 -21 -160 -21 -6 0 -11 -402 -12 -1097 l-3
-1097 -232 251 -233 251 -1 864 c-1 979 8 908 -79 593 -120 -430 -260 -787
-406 -1037 -25 -43 -44 -82 -42 -87 1 -5 170 -206 373 -447 204 -241 433 -513
510 -604 77 -92 230 -273 340 -404 110 -130 202 -242 204 -248 2 -6 -5 -8 -15
-5 -15 4 -659 22 -794 22 -29 0 -10 65 -170 -590 -56 -231 -105 -423 -109
-427 -4 -4 -30 69 -59 163 -95 311 -170 486 -273 638 -71 104 -164 209 -176
198 -14 -14 -10 -1182 5 -1347 25 -279 43 -416 77 -586 129 -642 399 -1016
853 -1183 42 -16 104 -34 137 -41 93 -19 94 -21 33 -72 -122 -103 -250 -173
-384 -210 -63 -17 -108 -21 -224 -22 -127 0 -158 3 -253 28 -60 15 -139 40
-177 55 l-69 29 -39 -52 c-57 -74 -133 -149 -206 -201 -68 -48 -215 -121 -263
-131 -37 -7 -156 38 -255 96 -83 50 -214 171 -258 240 l-31 48 -72 -28 c-329
-127 -613 -118 -872 26 -75 42 -231 161 -223 170 3 2 47 15 99 28 229 61 391
152 542 304 285 286 434 704 503 1407 20 201 34 1445 16 1445 -16 0 -129 -126
-181 -203 -103 -153 -191 -360 -282 -665 -24 -78 -46 -139 -50 -135 -4 5 -53
197 -109 428 -57 231 -112 458 -124 505 l-21 85 -35 -1 c-19 0 -208 -4 -419
-9 l-385 -8 25 31 c13 16 263 313 555 658 292 346 604 717 694 824 l164 194
-27 46 c-159 270 -306 640 -427 1075 -84 300 -75 370 -78 -598 l-2 -858 -226
-247 c-124 -136 -229 -248 -235 -250 -5 -2 -9 404 -9 1092 l0 1095 -47 6 c-27
3 -92 13 -146 21 -54 7 -107 14 -117 14 -20 0 -20 -16 -20 -1305 l0 -1305 -58
-62 c-32 -35 -123 -133 -202 -218 -80 -85 -148 -156 -152 -158 -4 -2 -8 702
-8 1565 l0 1569 -137 38 c-76 21 -150 41 -165 43 l-28 5 0 -1796 0 -1797 -202
-225 -203 -224 -5 2097 -5 2096 -70 30 c-38 16 -109 46 -158 68 -48 21 -89 39
-92 39 -3 0 -5 -1056 -5 -2347 l-1 -2348 -97 -106 c-53 -58 -144 -157 -202
-220 -57 -63 -108 -115 -112 -117 -4 -2 -8 1205 -8 2682 l0 2685 -161 105
c-88 58 -162 106 -165 106 -2 0 -4 -1339 -4 -2976 l0 -2976 -143 -157 c-78
-86 -171 -189 -207 -228 -35 -40 -68 -73 -72 -73 -13 0 -10 8209 3 8315 26
215 122 432 277 625 100 125 309 321 475 444 42 32 77 62 77 66 0 4 -18 38
-40 76 -53 93 -80 201 -80 326 0 56 4 98 10 98 5 0 38 -18 72 -41 78 -50 190
-104 283 -136 156 -53 360 -67 572 -39 178 24 272 28 383 17 142 -15 220 -35
317 -83 187 -91 260 -249 193 -421 -89 -231 -497 -545 -773 -593 -197 -35
-329 36 -414 223 -14 29 -28 53 -31 53 -11 0 -137 -219 -175 -305 -77 -174
-127 -388 -127 -543 0 -559 433 -1092 1270 -1565 l136 -77 461 0 462 0 10 58
c51 272 113 466 218 676 90 180 204 349 423 626 158 199 282 403 320 525 7 22
16 44 20 48 4 5 27 -5 51 -21 24 -17 71 -38 103 -47 50 -15 68 -16 111 -6 145
33 225 152 225 338 0 156 -42 292 -160 520 -128 247 -272 463 -488 733 -55 68
-103 137 -106 152 -5 23 45 179 70 219 9 16 90 10 226 -17z m-409 -184 c2 -87
9 -98 180 -309 240 -295 460 -661 539 -895 55 -164 42 -329 -32 -407 -33 -35
-42 -39 -84 -39 -55 0 -93 18 -150 70 l-41 38 -70 -14 c-196 -38 -443 5 -700
121 l-80 36 55 -5 c248 -24 324 -28 490 -23 185 6 376 29 394 47 15 15 -11
135 -44 199 -40 78 -89 132 -171 187 -112 74 -192 98 -324 98 -128 -1 -190
-19 -292 -85 -66 -43 -106 -83 -162 -161 -19 -27 -37 -48 -40 -48 -14 0 -113
161 -155 250 -61 130 -87 232 -93 367 -19 402 244 658 670 650 l108 -2 2 -75z
m-802 -1194 c79 -14 198 -30 264 -35 211 -19 741 -11 922 13 30 4 33 2 44 -32
6 -21 9 -51 7 -67 l-3 -30 -185 -3 c-382 -7 -750 37 -1040 122 -88 26 -169 54
-159 55 3 1 70 -10 150 -23z m161 -6548 c3 -13 31 -131 63 -262 l57 -239 -38
-81 c-46 -95 -193 -320 -284 -431 -95 -119 -377 -396 -529 -520 l-133 -110 38
-17 c22 -9 195 -79 386 -155 191 -76 348 -142 348 -148 1 -18 -143 -394 -149
-391 -3 2 -170 99 -370 216 -200 116 -370 214 -377 217 -11 4 -11 -4 1 -44 8
-26 80 -259 159 -518 79 -258 142 -471 141 -472 -1 -2 -89 -9 -196 -17 -107
-8 -213 -18 -236 -22 l-41 -6 -6 83 c-10 129 -36 732 -36 825 0 46 -3 84 -7
84 -5 0 -118 -199 -252 -441 -135 -242 -247 -442 -251 -444 -7 -4 -344 191
-348 203 -2 7 143 184 595 727 73 88 129 161 124 163 -5 2 -176 25 -380 51
-204 27 -375 51 -378 55 -8 7 66 416 77 429 6 7 134 -44 634 -249 87 -36 165
-63 172 -60 21 8 263 301 360 435 252 351 398 654 489 1016 l33 130 64 6 c34
3 109 6 164 7 98 2 102 1 106 -20z m2996 13 l74 -6 33 -130 c111 -433 292
-778 639 -1210 57 -71 128 -157 158 -190 l55 -59 79 32 c43 17 223 90 398 162
176 71 323 127 327 123 6 -8 79 -387 79 -415 0 -21 2 -21 -370 -68 -173 -22
-334 -43 -357 -48 l-42 -7 83 -100 c45 -55 209 -253 364 -439 155 -187 282
-343 282 -346 0 -9 -343 -209 -350 -205 -4 2 -116 202 -251 444 -134 243 -247
441 -251 441 -5 0 -8 -28 -8 -62 1 -124 -33 -913 -39 -920 -3 -3 -82 0 -176 8
-93 8 -198 17 -232 20 -40 4 -63 10 -63 18 0 7 69 239 154 517 84 277 152 505
150 507 -1 2 -154 -85 -341 -194 -186 -108 -356 -207 -379 -220 l-41 -24 -72
192 c-39 106 -71 198 -71 203 0 6 168 77 373 158 204 81 378 151 385 155 8 6
-30 43 -120 117 -158 130 -437 405 -532 525 -94 118 -216 303 -272 413 l-47
92 58 240 c32 132 60 250 63 263 4 21 9 22 96 21 50 -1 124 -4 164 -8z m-5124
-1467 c-14 -77 -30 -143 -35 -148 -5 -5 -15 -3 -25 5 -22 18 -117 17 -171 -3
-54 -20 -54 -12 -5 72 51 89 139 174 205 198 28 11 53 19 55 17 2 -1 -9 -65
-24 -141z m7092 86 c25 -18 64 -56 87 -85 45 -58 93 -142 85 -150 -3 -3 -34 2
-71 11 -50 13 -75 14 -104 7 -21 -6 -45 -12 -53 -14 -13 -4 -38 94 -64 253
l-6 37 40 -14 c22 -8 61 -28 86 -45z m-4996 -720 c86 -121 87 -278 3 -450
l-37 -75 -7 72 c-6 68 -42 162 -81 215 -10 13 -3 38 38 142 27 69 52 126 56
126 4 0 16 -13 28 -30z m2868 -47 c68 -178 68 -180 50 -200 -34 -37 -70 -134
-77 -206 l-7 -72 -37 75 c-65 132 -79 264 -40 360 20 51 62 120 73 120 4 0 22
-35 38 -77z m-4768 -712 c72 -44 94 -63 92 -77 -11 -72 -13 -168 -3 -214 6
-29 9 -55 6 -58 -9 -9 -115 79 -155 129 -22 28 -46 73 -55 101 -23 78 -18 178
9 178 6 0 54 -27 106 -59z m6726 23 c15 -83 -17 -190 -80 -262 -34 -39 -135
-116 -142 -109 -3 2 0 25 7 50 10 40 8 160 -3 221 -2 15 18 32 92 77 52 32
100 59 107 59 7 0 15 -16 19 -36z m-5580 -218 c-8 -32 10 -121 34 -171 11 -22
44 -69 74 -105 30 -35 54 -66 52 -67 -8 -8 -162 44 -232 77 -125 60 -213 160
-214 242 0 28 6 30 170 41 124 9 123 9 116 -17z m4559 5 c37 -6 40 -9 36 -36
-10 -85 -91 -177 -203 -233 -65 -32 -237 -86 -246 -77 -3 2 16 26 42 52 68 69
116 170 116 243 0 31 3 60 7 63 7 7 182 -1 248 -12z"/>
<path d="M7308 13530 c-76 -41 -107 -141 -66 -220 32 -62 85 -92 156 -87 91 6
152 72 152 162 0 57 -24 102 -72 138 -39 29 -123 33 -170 7z"/>
<path d="M13277 393 c-4 -3 -7 -17 -7 -30 0 -16 -6 -23 -20 -23 -11 0 -20 -7
-20 -15 0 -8 7 -15 15 -15 22 0 18 -21 -5 -27 -22 -6 -28 -33 -7 -33 9 0 12
-10 9 -30 -3 -22 0 -30 11 -30 10 0 17 11 19 27 2 14 9 28 16 31 10 3 13 -4
10 -24 -4 -39 21 -44 28 -5 5 21 12 31 25 31 11 0 19 7 19 15 0 8 -7 15 -15
15 -8 0 -15 7 -15 15 0 8 9 15 20 15 11 0 20 7 20 15 0 8 -7 15 -15 15 -11 0
-13 8 -8 30 4 23 2 30 -9 30 -9 0 -18 -13 -21 -30 -4 -16 -11 -30 -17 -30 -5
0 -10 14 -10 30 0 29 -9 38 -23 23z"/>
<path d="M13579 371 c-24 -25 -29 -37 -29 -81 0 -41 5 -56 25 -75 45 -46 105
-21 105 44 0 44 -24 71 -63 71 -33 0 -26 27 9 36 13 3 24 12 24 20 0 24 -40
15 -71 -15z"/>
<path d="M13887 382 c-20 -22 -22 -53 -5 -70 9 -9 9 -15 0 -24 -20 -20 -14
-65 10 -82 29 -20 58 -20 87 0 19 13 22 22 17 48 -4 17 -7 40 -6 51 0 11 1 31
1 44 2 47 -71 70 -104 33z"/>
<path d="M14046 384 c-45 -44 -18 -119 43 -119 38 0 35 -15 -7 -35 -32 -15
-43 -40 -18 -40 61 0 103 61 93 135 -9 64 -72 98 -111 59z"/>
<path d="M14206 384 c-45 -44 -18 -119 43 -119 38 0 35 -15 -7 -35 -32 -15
-43 -40 -18 -40 61 0 103 61 93 135 -9 64 -72 98 -111 59z"/>
</g>
</svg>
